<svg width="48" height="48" viewBox="0 0 48 48" fill="none" xmlns="http://www.w3.org/2000/svg">
  <g>
    <rect x="2" y="2" width="44" height="44" rx="10" fill="none"/>
    <g>
      <path d="M24 8c-1.5 2-3.5 3.5-6 4l2 3c-6 2-10 7-10 13 0 6.6 6.3 12 14 12s14-5.4 14-12c0-6-4-11-10-13l2-3c-2.5-.5-4.5-2-6-4z" fill="white"/>
      <path d="M24 8c-1.5 2-3.5 3.5-6 4l2 3c-6 2-10 7-10 13 0 6.6 6.3 12 14 12s14-5.4 14-12c0-6-4-11-10-13l2-3c-2.5-.5-4.5-2-6-4z" stroke="#7F7FD5" stroke-width="2"/>
      <ellipse cx="24" cy="28" rx="5" ry="7" fill="#7F7FD5" fill-opacity="0.15"/>
      <text x="19" y="32" font-size="10" fill="#7F7FD5" font-family="Arial" font-weight="bold">$</text>
      <g>
        <ellipse cx="34" cy="36" rx="3" ry="2" fill="white" stroke="#7F7FD5" stroke-width="1.5"/>
        <ellipse cx="34" cy="33" rx="3" ry="2" fill="white" stroke="#7F7FD5" stroke-width="1.5"/>
        <ellipse cx="34" cy="30" rx="3" ry="2" fill="white" stroke="#7F7FD5" stroke-width="1.5"/>
      </g>
    </g>
  </g>
</svg>
